PathFileType	4	(X/Y/Z)	SUBJ24_0_static_RCNL2025.trc
DataRate	CameraRate	NumFrames	NumMarkers	Units	OrigDataRate	OrigDataStartFrame	OrigNumFrames
100	100	13	25	mm	100	1	92
Frame#	Time	R_Shoulder			L_Shoulder			C7			J_Notch			R_Elbow			L_Elbow			R_Wrist			L_Wrist			R_Asis			L_Asis			Sacral			Thoracic			Sternum			R_Thigh_Lateral			R_Knee_Lateral			R_Shank_Lateral			R_Ankle_Lateral			R_Heel			R_Toe			L_Thigh_Lateral			L_Knee_Lateral			L_Shank_Lateral			L_Ankle_Lateral			L_Heel			L_Toe		
		X1	Y1	Z1	X2	Y2	Z2	X3	Y3	Z3	X4	Y4	Z4	X5	Y5	Z5	X6	Y6	Z6	X7	Y7	Z7	X8	Y8	Z8	X9	Y9	Z9	X10	Y10	Z10	X11	Y11	Z11	X12	Y12	Z12	X13	Y13	Z13	X14	Y14	Z14	X15	Y15	Z15	X16	Y16	Z16	X17	Y17	Z17	X18	Y18	Z18	X19	Y19	Z19	X20	Y20	Z20	X21	Y21	Z21	X22	Y22	Z22	X23	Y23	Z23	X24	Y24	Z24	X25	Y25	Z25
1	0.00000000	-278.542206	1342.529175	-61.243179	-304.960266	1338.843384	-397.265869	-371.093506	1394.234009	-221.274155	-232.813034	1309.182251	-232.741028	-268.909088	1121.077026	110.705597	-328.299683	1106.392456	-560.839111	-201.241821	918.994934	208.127602	-262.754555	924.758881	-684.073730	-236.161057	889.019775	-65.603752	-242.884918	885.661011	-395.907104	-409.601318	932.021729	-221.741638	-419.802704	1122.325317	-223.906479	-155.879318	1092.131104	-240.882263	-349.160187	588.739319	-29.937056	-308.536713	447.327057	-103.511902	-337.528839	308.185974	-47.509167	-365.457458	70.971405	-110.356415	-410.829285	40.883385	-166.380905	-235.484436	42.683517	-118.757828	-319.688965	584.195862	-408.479462	-318.876251	452.165436	-353.674164	-351.191162	296.974976	-401.074615	-357.911865	68.451080	-329.777374	-399.099091	40.766861	-270.250305	-235.133667	46.764259	-312.320526
2	0.01000000	-278.531738	1342.501953	-61.276127	-305.053192	1338.838379	-397.236847	-371.183563	1394.246582	-221.192078	-232.905045	1309.143188	-232.652222	-268.917999	1121.063965	110.707756	-328.330963	1106.390625	-560.879028	-201.113167	918.987549	207.902039	-262.807556	924.743805	-684.113098	-236.301666	889.016357	-65.617599	-242.895920	885.684937	-395.852539	-409.604553	931.952393	-221.756683	-419.745178	1122.146851	-223.946884	-155.951599	1092.100830	-240.812241	-349.018066	588.442627	-29.946341	-308.541229	447.311066	-103.517487	-337.453369	308.227631	-47.490959	-365.588959	70.993256	-110.529388	-410.804016	40.813725	-166.383270	-235.507904	42.702862	-118.738510	-319.677643	584.206543	-408.283966	-318.958862	452.119446	-353.646057	-351.191467	296.974182	-401.101288	-357.930756	68.476097	-329.787384	-399.122406	40.766087	-270.246399	-235.035278	46.721069	-312.309875
3	0.02000000	-278.593292	1342.502075	-61.274586	-305.137787	1338.800415	-397.282928	-371.328918	1394.248291	-221.226761	-233.031281	1309.202881	-232.664429	-268.977539	1121.020752	110.633820	-328.410156	1106.443848	-560.811035	-201.277069	918.963867	207.962471	-267.325897	921.685852	-686.286469	-236.351868	889.034912	-65.581985	-243.049835	885.614075	-395.811798	-409.778900	932.009521	-221.736969	-419.902100	1122.269897	-223.947540	-156.082611	1092.119751	-240.861664	-348.993805	588.472473	-29.930426	-308.487732	447.400177	-103.524193	-337.486359	308.217041	-47.483410	-365.554474	70.922035	-110.494278	-410.783447	40.819664	-166.422928	-235.459930	42.740589	-118.757347	-319.768341	584.311096	-408.412079	-318.969208	452.093109	-353.621582	-351.291595	296.959076	-401.087982	-357.965668	68.445885	-329.771698	-398.949341	41.180603	-270.072479	-235.084610	46.723900	-312.329132
4	0.03000000	-278.601929	1342.483398	-61.302448	-305.195099	1338.811768	-397.247131	-371.336823	1394.236572	-221.231323	-233.032440	1309.211060	-232.693024	-268.991150	1121.007080	110.633064	-328.492798	1106.466675	-560.866028	-201.341843	918.897461	207.904770	-267.662132	921.591095	-686.211853	-236.385315	888.977295	-65.722450	-243.057938	885.682312	-395.865631	-409.861023	932.066467	-221.748016	-419.972992	1122.292236	-223.931183	-156.090271	1092.113770	-240.850128	-349.019989	588.416443	-29.922709	-308.546844	447.369354	-103.622246	-337.508148	308.222839	-47.454754	-365.584167	70.952156	-110.523285	-410.786316	40.850670	-166.438812	-235.502197	42.748474	-118.798569	-319.861725	584.394775	-408.424896	-318.995453	452.103149	-353.653442	-351.305023	296.944244	-401.083893	-357.938171	68.418793	-329.762695	-398.970612	41.208485	-270.081055	-235.060394	46.697475	-312.317810
5	0.04000000	-278.734955	1342.401611	-61.263859	-305.339264	1338.804932	-397.273529	-371.336212	1394.182983	-221.215485	-233.131607	1309.227783	-232.765091	-269.033356	1120.923218	110.551003	-328.588318	1106.464233	-560.782227	-201.276955	918.805969	207.824570	-267.495384	921.719757	-686.214264	-236.460953	889.067017	-65.640556	-243.124985	885.667480	-395.844940	-409.938049	932.012939	-221.751434	-420.094238	1122.292480	-223.953049	-156.287354	1092.088135	-240.762543	-349.106628	588.452026	-29.956377	-308.558228	447.400818	-103.585434	-337.529663	308.223236	-47.476219	-365.546021	70.918358	-110.489647	-410.805634	40.723568	-166.402847	-235.495193	42.781528	-118.924690	-319.880920	584.377869	-408.336060	-318.983734	452.089325	-353.637787	-351.301575	296.936035	-401.103394	-357.941559	68.415070	-329.778198	-399.013824	41.120296	-270.096893	-235.090073	46.730217	-312.315094
6	0.05000000	-278.835327	1342.408203	-61.270679	-305.365204	1338.802734	-397.182159	-371.487976	1394.187500	-221.207993	-233.218689	1309.224609	-232.672348	-269.036011	1120.909668	110.528938	-328.668579	1106.400513	-560.862610	-201.335701	918.774780	207.721001	-267.478424	921.701721	-686.253632	-236.585251	889.082092	-65.661736	-243.208344	885.625061	-395.807251	-409.937714	931.919312	-221.736603	-420.148590	1122.251465	-223.905487	-156.307510	1092.116943	-240.822464	-349.266266	588.716553	-29.965626	-308.676208	447.381958	-103.534302	-337.520447	308.190308	-47.469017	-365.596497	70.969543	-110.518478	-410.803497	40.767014	-166.409668	-235.444214	42.823845	-118.957741	-319.882782	584.388794	-408.350830	-319.007538	452.100098	-353.653564	-351.367645	296.838165	-401.086731	-357.931458	68.423790	-329.762604	-399.016144	41.110744	-270.101532	-235.093338	46.727768	-312.339508
7	0.06000000	-278.937439	1342.375977	-61.239460	-305.516937	1338.782715	-397.253448	-371.503479	1394.191895	-221.205139	-233.344788	1309.205078	-232.690857	-269.174225	1120.851196	110.517609	-328.732880	1106.391602	-560.804688	-201.340073	918.747742	207.589012	-267.572472	921.689301	-686.279541	-236.631210	889.104492	-65.676697	-243.209335	885.611328	-395.802124	-410.061066	931.949036	-221.761658	-420.246735	1122.282715	-223.960678	-156.305222	1092.126221	-240.806274	-349.178375	588.516479	-29.918730	-308.653351	447.387573	-103.565155	-337.529388	308.194031	-47.496841	-365.493652	70.909592	-110.429161	-410.806061	40.798946	-166.411011	-235.506516	42.763340	-118.803055	-320.053223	584.203064	-408.414093	-319.088928	452.084137	-353.600281	-351.364227	296.816833	-401.076263	-357.940216	68.444878	-329.766541	-399.005157	41.136955	-270.092255	-235.093979	46.729885	-312.338440
8	0.07000000	-279.007629	1342.376953	-61.263943	-305.619476	1338.791626	-397.238220	-371.574707	1394.209717	-221.164856	-233.360992	1309.200928	-232.696014	-269.194641	1120.841675	110.526398	-328.816376	1106.389404	-560.877319	-201.217415	918.688538	207.485306	-267.685600	921.695465	-686.187683	-236.722443	889.167969	-65.659790	-243.362289	885.628723	-395.828644	-410.093964	931.906921	-221.737198	-420.283417	1122.283813	-223.951202	-156.411224	1092.118042	-240.841003	-349.161743	588.446167	-29.974716	-308.680573	447.380615	-103.535751	-337.543457	308.239655	-47.471745	-365.457916	70.887932	-110.445297	-410.788330	40.800846	-166.451370	-235.585678	42.721527	-118.757904	-320.060120	584.316345	-408.297852	-319.141724	452.101501	-353.656189	-351.317352	296.921692	-401.068817	-357.962616	68.428879	-329.765320	-398.998688	41.159389	-270.085602	-235.090210	46.725853	-312.329926
9	0.08000000	-279.059692	1342.395508	-61.295006	-305.689789	1338.805054	-397.248840	-371.728241	1394.209473	-221.139267	-233.464722	1309.203979	-232.759872	-269.290283	1120.775635	110.483536	-328.924713	1106.390381	-560.772217	-201.209549	918.614532	207.403656	-267.697403	921.666687	-686.199493	-236.793823	889.056580	-65.643745	-243.378189	885.630554	-395.834045	-410.237091	931.967834	-221.720917	-420.433990	1122.315552	-223.894989	-156.507126	1092.114624	-240.770142	-349.255432	588.423035	-29.987799	-308.635193	447.325989	-103.586296	-337.571960	308.256958	-47.433434	-365.494324	70.934921	-110.391861	-410.803711	40.759068	-166.430969	-235.519455	42.746597	-118.791641	-320.148315	584.276245	-408.496399	-319.156525	452.141541	-353.664703	-351.322693	296.923096	-401.056396	-357.942139	68.461548	-329.785706	-398.990784	41.149506	-270.084961	-235.081985	46.741684	-312.332245
10	0.09000000	-279.142914	1342.386719	-61.191250	-305.768951	1338.850830	-397.196472	-371.740906	1394.212402	-221.161102	-233.551086	1309.214844	-232.667709	-269.267487	1120.759644	110.449875	-329.070709	1106.415161	-560.759949	-201.272255	918.512573	207.390961	-267.755714	921.683197	-686.074738	-236.743546	889.106873	-65.684631	-243.552063	885.655884	-395.786957	-410.262238	931.944519	-221.725098	-420.449860	1122.298950	-223.800797	-156.630814	1092.069214	-240.801193	-349.256714	588.465149	-29.950489	-308.669403	447.370789	-103.536652	-337.501129	308.228577	-47.509556	-365.565308	70.994041	-110.521027	-410.803741	40.832886	-166.411865	-235.416504	42.736073	-118.796860	-320.034973	584.213562	-408.214294	-319.151733	452.127716	-353.626007	-351.307129	296.961304	-401.062378	-357.925690	68.464012	-329.778198	-399.111664	40.776932	-270.219177	-235.081635	46.742542	-312.332703
11	0.10000000	-279.235199	1342.337769	-61.199486	-305.910889	1338.772095	-397.198395	-371.840424	1394.209351	-221.057968	-233.564240	1309.193848	-232.649048	-269.293152	1120.635498	110.400597	-329.116364	1106.434570	-560.767578	-201.210381	918.449799	207.296944	-267.928619	921.770142	-685.970184	-236.951050	889.121277	-65.636124	-243.537704	885.665955	-395.800995	-410.383209	931.994019	-221.740097	-420.495117	1122.214233	-223.849625	-156.642136	1092.096802	-240.802841	-349.248932	588.447388	-29.996403	-308.660461	447.421173	-103.561844	-337.497589	308.188721	-47.503483	-365.491821	70.920998	-110.411934	-410.787964	40.819221	-166.425491	-235.394470	42.735760	-118.824684	-320.056763	584.233887	-408.206635	-319.134949	452.108917	-353.620056	-351.357880	296.930481	-401.065613	-357.910522	68.444984	-329.754822	-398.992523	41.097080	-270.103149	-235.035446	46.719151	-312.313110
12	0.11000000	-279.304840	1342.261841	-61.216076	-305.966827	1338.770630	-397.195374	-371.937836	1394.218262	-221.096893	-233.752991	1309.209473	-232.622498	-269.415985	1120.579590	110.352867	-329.234924	1106.373047	-560.755615	-201.276169	918.415344	207.257698	-268.004684	921.646118	-685.979889	-237.018570	889.132446	-65.584763	-243.649948	885.747559	-395.886963	-410.482391	931.941223	-221.681931	-420.631989	1122.325317	-223.879883	-156.814346	1092.134399	-240.776413	-349.299713	588.401123	-29.979719	-308.689911	447.352722	-103.542160	-337.491150	308.216705	-47.511559	-365.544769	70.959030	-110.544228	-410.800964	40.811974	-166.386276	-235.453949	42.749294	-118.763214	-320.135620	584.352478	-408.251343	-319.124023	452.140167	-353.639587	-351.372955	296.923126	-401.040039	-357.950378	68.447563	-329.736176	-398.992554	41.171825	-270.075378	-235.039627	46.728168	-312.321991
13	0.12000000	-279.374146	1342.278198	-61.146263	-306.089691	1338.874023	-397.121796	-372.018951	1394.167603	-221.050385	-233.806427	1309.143311	-232.656693	-269.426056	1120.478149	110.336143	-329.374573	1106.329346	-560.726074	-201.242104	918.310913	207.156212	-267.999344	921.613342	-685.975281	-237.143295	889.093506	-65.630905	-243.620895	885.665466	-395.781738	-410.528656	931.941284	-221.760345	-420.719635	1122.294434	-223.863190	-156.717010	1092.152222	-240.730499	-349.319061	588.455994	-30.024433	-308.622498	447.307495	-103.602592	-337.435272	308.160248	-47.530262	-365.564178	70.979111	-110.561340	-410.804810	40.813732	-166.381500	-235.553528	42.702637	-118.772728	-320.237366	584.284607	-408.430176	-319.137115	452.159363	-353.669037	-351.376617	296.940887	-401.054810	-357.936279	68.401001	-329.771179	-399.112915	40.782612	-270.215851	-235.049515	46.713314	-312.320251
